-
http:// www . torrentkit. com        
http:// www .torrentkit. com       the fast  and The Hottest Private Tracker on the net

Please Seed back to make the speed Faster!!!

and don't forget to visit      ...... www .torrentkit .com..........
-[align=center][IMG]http://img851.imageshack.us/img851/6159/happyfeetcover.jpg[/IMG]

** ** ** ** ** ** ** ** ** 

IMDB........ http://www.imdb.com/title/tt0366548/

** ** ** ** ** ** ** ** ** 

[b]PLOT[/b]

Into the world of the Emperor Penguins, who find their soul mates through song, a penguin is born who cannot sing. But he can tap dance something fierce! 

** ** ** ** ** ** ** ** ** 

[b]AVI Information[/b]

Complete name : Happy.Feet.2006. 720 BRRip Xvid AC3 - PRESTiGE.avi 
Format : AVI 
Format/Info : Audio Video Interleave 
Format profile : OpenDML 
Format settings : rec 
File size : 2.83 GiB 
Duration : 1h 48mn 
Overall bit rate : 3 731 Kbps 
Source: Happy.Feet.2006.1080p.BluRay.x264.MULTi-hRf
Encoder: Twisted

[b]Video Stream[/b]

ID : 0 
Format : MPEG-4 Visual 
Format profile : Advanced Simple@L5 
Format settings, BVOP : 2 
Format settings, QPel : No 
Format settings, GMC : No warppoints 
Format settings, Matrix : Default (MPEG) 
Codec ID : XVID 
Codec ID/Hint : XviD 
Duration : 1h 48mn 
Bit rate : 3 085 Kbps 
Width : 1 280 pixels 
Height : 528 pixels 
Display aspect ratio : 2.40:1 
Frame rate : 23.976 fps 
Color space : YUV 
Chroma subsampling : 4:2:0 
Bit depth : 8 bits 
Scan type : Progressive 
Compression mode : Lossy 
Bits/(Pixel*Frame) : 0.190 
Stream size : 2.34 GiB (83%) 
Writing library : XviD 1.2.1 (UTC 2008-12-04) 


[b]Audio Stream[/b]

ID : 1 
Format : AC-3 
Format/Info : Audio Coding 3 
Mode extension : CM (complete main) 
Codec ID : 2000 
Duration : 1h 48mn 
Bit rate mode : Constant 
Bit rate : 640 Kbps 
Channel(s) : 6 channels 
Channel positions : Front: L C R, Side: L R, LFE 
Sampling rate : 48.0 KHz 
Bit depth : 16 bits 
Compression mode : Lossy 
Stream size : 497 MiB (17%) 
Alignment : Aligned on interleaves 
Interleave, duration : 64 ms (1.53 video frames) 
Interleave, preload duration : 192 ms 
Title : T2_Audio - 5.1 channels 



** ** ** ** ** ** ** ** ** 

[b]Screens[/b]

[IMG]http://img855.imageshack.us/img855/4442/pic11.png[/IMG]
[IMG]http://img857.imageshack.us/img857/6224/pic12u.png[/IMG]
[IMG]http://img862.imageshack.us/img862/3250/pic13.png[/IMG]
[IMG]http://img860.imageshack.us/img860/6884/pic14.png[/IMG]
[IMG]http://img705.imageshack.us/img705/5214/pic15z.png[/IMG]
[IMG]http://img844.imageshack.us/img844/1263/pic16.png[/IMG]
[IMG]http://img816.imageshack.us/img816/3350/pic17.png[/IMG]
[IMG]http://img848.imageshack.us/img848/1047/pic18.png[/IMG]

** ** ** ** ** ** ** ** **

Note

PRESTiGE - IS LOOKING FOR?: CAMMER'S, AUDIO SUPPLIERS, SYNCER'S, RETAIL SUPPLIER'S, SILVER'S, SCREENER'S, LINE CAPPER'S

ENCODER'S - ANYTHING AT ALL EMAIL US AT..... prestige@twistedtorrents.com

** ** ** ** ** ** ** ** **

Greets Are Flying Out To:

[b]BmB,HiTM4N,BIGGUY,Demedic,DiLLoN,Imagine,CTFX,Jammo
Encoders Past And Present[/b]

** ** ** ** ** ** ** ** ** 

PRESTiGE is the level of respect at which one is regarded by others....RIzE Above Or Sink Below

[IMG]http://leetleech.org/images/83508160282003703104.png[/IMG][/align]